<svg xmlns="http://www.w3.org/2000/svg" xmlns:xlink="http://www.w3.org/1999/xlink" version="1.1" id="Layer_group_1_" x="0px" y="0px" style="enable-background:new 0 0 2388 1668;" xml:space="preserve" viewBox="272.15 648.13 1396.28 387.95"><style type="text/css">	.st0{fill:#FFFFFF;}</style><path class="st0" d="M754.23,777.76c-1.02-9.63-4.36-17.34-10.01-23.13c-5.65-5.79-13.37-9.6-23.15-11.43  c-3.46-0.64-7.68-1.18-12.65-1.59c-0.66,0-1.33-0.01-2-0.01c-6.83,0-13.65-0.01-20.49-0.02c-1.6,0-3.21-0.01-4.82-0.01h-15.03  c-3.26,0-6.51-0.02-9.76-0.02h-4.22c-0.05-0.04-0.11-0.07-0.18-0.07h-72.46c-0.04,0.06-0.12,0.11-0.21,0.11h-25.28  c-0.04,0.03-0.09,0.05-0.13,0.05c-0.2,0-0.39-0.01-0.58-0.01c-0.15-0.01-0.31-0.01-0.47-0.02c-0.19-0.01-0.39-0.03-0.58-0.06  c-0.11-0.02-0.22-0.04-0.33-0.07h-5.09c-0.16,0.03-0.33,0.05-0.49,0.06c0,0,0,0-0.01,0c-0.03,0-0.06,0-0.09-0.02  c-0.03,0.07-0.06,0.11-0.08,0.17c-0.08,0.17-0.16,0.35-0.23,0.53c-0.02,0.07-0.07,0.11-0.13,0.14c-2.14,4.52-4.29,9.04-6.43,13.57  c-4.6,7.7-7.46,16.55-11.71,24.44c-10.01,21.17-20.02,42.35-30.03,63.53c-13.93,29.49-27.87,58.97-41.81,88.46  c-4.63-7.55-9.26-15.1-13.9-22.66c-6.05-9.87-12.1-19.74-18.16-29.61c-6.95-11.35-13.91-22.69-20.86-34.03  c-3.74-6.09-10.13-10.49-17.05-12.09c-7.16-1.65-14.81-0.36-21.01,3.58c-2.11,1.34-4.02,2.97-5.66,4.81  c-3.37,2.23-6.25,5.2-8.29,8.67c-0.18,0.31-0.36,0.61-0.53,0.91c-5.83,9.9-11.65,19.79-17.47,29.68  c-6.08,10.33-12.14,20.66-18.23,30.98c-6.15,10.42-12.28,20.86-18.41,31.29c-6.71,11.38-13.41,22.77-20.11,34.15  c-3.76,6.39-4.95,14.01-3.07,21.21c1.8,6.91,6.33,12.96,12.44,16.65c4.31,2.61,9.3,3.96,14.3,3.96c2.32,0,4.65-0.29,6.91-0.88  c6.85-1.79,13.05-6.32,16.65-12.45c0.35-0.59,0.71-1.19,1.06-1.79c6.52-11.08,13.04-22.16,19.56-33.25  c6.01-10.21,12.02-20.41,18.03-30.62c5.6-9.52,11.21-19.04,16.81-28.57c0.4,0.64,0.79,1.28,1.18,1.92  c6.21,10.13,12.42,20.25,18.62,30.38c6.18,10.08,12.37,20.16,18.55,30.24c6.06,9.88,12.11,19.75,18.17,29.63  c3.73,6.09,10.13,10.49,17.05,12.09c1.51,0.35,3.04,0.56,4.57,0.66c-0.01,0.02-0.01,0.03-0.02,0.05c69.14,0,69.14,0,69.14,0  c35.36-0.25,57.88-0.88,67.58-1.89c15.46-1.63,29.91-6.01,43.31-13.12c13.4-7.11,25.83-16.62,37.27-28.51  c11.45-11.9,20.17-24.14,26.15-36.73c7.6-15.98,9.73-29.89,6.39-41.73c-3.34-11.82-12.18-20.2-26.53-25.11  c14.4-5.41,27.63-13.53,39.69-24.36c12.05-10.82,21.17-22.72,27.33-35.68C752.93,798.18,755.26,787.38,754.23,777.76z   M644.46,934.38c-4.66,9.82-10.98,17.66-18.92,23.51c-7.95,5.85-16.4,9.53-25.33,11.05c-5.9,1.13-18.8,1.69-38.73,1.69  c-51.17,0-51.17,0-51.17,0c35.19-74.01,35.19-74.01,35.19-74.01c44.64,0,44.64,0,44.64,0c25.15,0,40.86,1.32,47.14,3.96  c6.28,2.65,10.03,6.87,11.26,12.65C649.77,919.02,648.41,926.07,644.46,934.38z M689.68,818.07c-4.25,8.94-10.38,16.14-18.4,21.62  c-8.02,5.47-17.03,8.78-27.03,9.91c-5.54,0.63-19.07,0.94-40.61,0.94c-36.24,0-36.24,0-36.24,0c30.44-64,30.44-64,30.44-64  c31.75,0,31.75,0,31.75,0c26.02,0,41.62,0.31,46.8,0.94c8.68,1.13,14.08,4.37,16.21,9.72C694.72,802.56,693.75,809.51,689.68,818.07  z"></path><path class="st0" d="M567.57,741.59h-7.89C562.29,741.22,564.95,741.21,567.57,741.59z"></path><path class="st0" d="M571.8,718.75c-7.72-7.71-12.12-18.33-12.12-29.25s4.4-21.53,12.12-29.25c7.71-7.72,18.33-12.12,29.25-12.12  s21.53,4.4,29.25,12.12c7.72,7.71,12.12,18.33,12.12,29.25s-4.4,21.53-12.12,29.25c-7.71,7.72-18.33,12.12-29.25,12.12  S579.51,726.47,571.8,718.75z"></path><path class="st0" d="M456.97,820.34c0,0.18-0.05,3.44-0.38,3.44h-99.2c-0.09,0-0.15-0.24-0.2-0.57c-2.64-0.28-4.99-1.65-6.58-3.65  c-0.18,0.11-0.31,0.18-0.41,0.22c-11.86-19.41-23.7-38.82-35.56-58.23c-5.05-8.27-10.09-16.54-15.14-24.81  c-1.1-0.91,0.61-1.91,1.15-2.38c3.4-2.9,10.05-8.08,13.8-9.99c2.26,3.7,4.52,7.4,6.78,11.1c14.04,23,28.08,46,42.13,69.01h93.23  c0.26,0,0.32,2.19,0.32,2.27C457.17,811.27,457.14,815.82,456.97,820.34z"></path><g>	<path class="st0" d="M767.58,911.07l-39.17-4.05c4.71-13.18,12.72-23.42,24.01-30.7c11.29-7.28,26.14-10.76,44.54-10.44   c19.15,0.33,33.23,4.43,42.25,12.3c9.02,7.87,13.43,17.36,13.24,28.47c-0.08,4.48-0.56,9.24-1.44,14.27   c-0.88,5.03-3.89,18.25-9.03,39.65c-4.23,17.68-6.41,30.07-6.54,37.17c-0.11,6.35,0.89,13.42,2.99,21.22l-39.09-0.68   c-1.5-5.44-2.38-11.07-2.65-16.87c-6,6.44-12.86,11.34-20.58,14.71c-7.72,3.37-15.46,4.99-23.21,4.85   c-12.33-0.21-22.44-4.43-30.33-12.65c-7.89-8.22-11.73-18.68-11.51-31.39c0.25-14.2,4.86-25.47,13.84-33.82   c8.98-8.35,24.83-13.21,47.56-14.59c19.18-1.25,32.01-2.94,38.49-5.07c1.78-5.58,2.7-10.04,2.76-13.41c0.07-4.29-1.59-7.92-5-10.88   c-3.41-2.96-8.52-4.49-15.34-4.61c-7.19-0.13-12.89,1.25-17.1,4.12C772.06,901.55,769.16,905.68,767.58,911.07z M805.18,949.01   c-2.44,0.61-5.67,1.16-9.7,1.65c-20.22,2.08-33.45,5.4-39.7,9.96c-4.45,3.29-6.72,7.78-6.82,13.48c-0.08,4.67,1.53,8.65,4.84,11.93   c3.31,3.28,7.71,4.97,13.23,5.07c6.07,0.11,11.82-1.27,17.24-4.11c5.42-2.85,9.51-6.56,12.25-11.14   c2.74-4.58,5.23-11.75,7.45-21.52L805.18,949.01z"></path>	<path class="st0" d="M961.53,965.06l38.98,6.99c-6.75,17.26-16.51,30.31-29.28,39.15c-12.77,8.84-27.47,13.12-44.09,12.83   c-18.96-0.33-33.9-6.24-44.82-17.74c-10.92-11.5-16.21-27.15-15.86-46.95c0.28-16.16,3.91-31.37,10.89-45.64   c6.98-14.27,17.31-25.42,31-33.45c13.69-8.03,28.61-11.9,44.77-11.62c17.56,0.31,31.49,5.13,41.79,14.46   c10.3,9.34,15.98,21.49,17.03,36.46l-38.32,3.4c-0.79-8.33-3.23-14.49-7.32-18.49c-4.09-4-9.5-6.05-16.22-6.17   c-7.75-0.14-15.04,2.63-21.87,8.31c-6.83,5.67-12.14,14.25-15.94,25.72c-3.8,11.47-5.78,22.25-5.96,32.34   c-0.15,8.78,1.88,15.59,6.09,20.43c4.21,4.84,9.54,7.31,15.99,7.43c6.44,0.11,12.7-2.11,18.76-6.68   C953.21,981.26,958,974.34,961.53,965.06z"></path>	<path class="st0" d="M1009.66,1021.96l46.6-204.66l40.21,0.7l-24.28,106.52l53.28-49.39l52.26,0.91l-60.77,53.04l30.15,95.27   l-40.21-0.7l-19.26-69.15l-27.6,23.62l-10.17,44.53L1009.66,1021.96z"></path>	<path class="st0" d="M1192.52,876.3l37.55,0.66l-6.53,28.76c14.39-21.33,29.76-31.86,46.1-31.57c5.79,0.1,11.98,1.66,18.56,4.67   l-15.99,32.66c-3.62-1.37-7.49-2.09-11.6-2.16c-6.91-0.12-13.99,2.37-21.23,7.48c-7.24,5.11-12.94,11.99-17.11,20.65   c-4.17,8.67-8.38,22.44-12.63,41.34l-10.62,46.49l-40.21-0.7L1192.52,876.3z"></path>	<path class="st0" d="M1409.79,966.99l-100.88-1.76c-0.12,1.59-0.19,2.8-0.2,3.64c-0.17,9.9,2.51,17.94,8.06,24.11   c5.54,6.17,12.38,9.33,20.51,9.47c13.36,0.23,23.89-6.5,31.61-20.19l35.9,6.65c-7.26,14.36-16.81,25.05-28.66,32.09   c-11.85,7.04-25.06,10.42-39.63,10.17c-19.99-0.35-36.13-6.96-48.43-19.84c-12.3-12.88-18.26-29.73-17.9-50.56   c0.36-20.36,6.32-38.38,17.9-54.07c15.79-21.21,37.97-31.57,66.56-31.07c18.22,0.32,32.59,6.2,43.14,17.64   c10.54,11.45,15.64,27.3,15.29,47.57C1412.88,950.56,1411.8,959.27,1409.79,966.99z M1376.31,941.88c0.12-1.77,0.19-3.13,0.21-4.06   c0.19-11.02-2.14-19.33-6.99-24.93c-4.86-5.6-11.44-8.47-19.75-8.61c-8.32-0.15-15.82,2.85-22.51,9   c-6.7,6.14-11.32,15.31-13.87,27.51L1376.31,941.88z"></path>	<path class="st0" d="M1410.07,987.32l39.06-5.49c3.31,8.28,7.51,14.17,12.59,17.67c5.08,3.5,12.05,5.33,20.93,5.48   c9.15,0.16,16.52-1.76,22.11-5.78c3.88-2.73,5.85-6.11,5.92-10.13c0.05-2.71-0.89-5.15-2.82-7.34c-2.02-2.09-7.53-4.71-16.54-7.86   c-24.15-8.46-39.08-15.07-44.78-19.84c-8.94-7.44-13.3-17.05-13.09-28.82c0.21-11.77,4.77-21.83,13.7-30.18   c12.44-11.65,30.71-17.26,54.82-16.84c19.15,0.33,33.57,4.09,43.25,11.27c9.68,7.18,15.73,16.77,18.14,28.77l-37.24,5.8   c-1.87-5.45-4.97-9.57-9.32-12.36c-5.92-3.75-13.08-5.69-21.48-5.84c-8.41-0.15-14.48,1.15-18.22,3.89   c-3.74,2.74-5.64,5.93-5.7,9.57c-0.07,3.74,1.75,6.85,5.44,9.34c2.31,1.54,9.78,4.28,22.42,8.24c19.52,6.04,32.54,11.87,39.08,17.5   c9.2,7.92,13.71,17.34,13.52,28.27c-0.25,14.11-6.39,26.24-18.44,36.4c-12.04,10.16-28.85,15.06-50.43,14.68   c-21.49-0.38-38.02-4.61-49.6-12.71C1421.79,1012.92,1414.02,1001.69,1410.07,987.32z"></path>	<path class="st0" d="M1577.39,912.87l6.69-29.74l19.62,0.34l5.32-23.73l46.58-26.94l-11.69,51.37l24.52,0.43l-6.69,29.74   l-24.66-0.43l-14.12,62.12c-2.53,11.26-3.81,17.69-3.84,19.27c-0.05,3.08,0.89,5.51,2.82,7.27c1.93,1.76,5.47,2.69,10.6,2.78   c1.77,0.03,6.22-0.22,13.33-0.75l-6.83,29.73c-6.94,1.28-14.05,1.86-21.33,1.73c-14.2-0.25-24.47-3.16-30.82-8.74   c-6.35-5.58-9.44-13.22-9.27-22.94c0.08-4.58,1.99-15.1,5.74-31.58l13.51-59.61L1577.39,912.87z"></path></g></svg>